#define battery_20_width 24
#define battery_20_height 24
static unsigned char battery_20_bits[] = {
   0x00, 0x00, 0x00, 0x00, 0x00, 0x00, 0x00, 0x00, 0x00, 0x00, 0x00, 0x00,
   0x00, 0x00, 0x00, 0x00, 0x00, 0x00, 0xf8, 0xff, 0x07, 0xfc, 0xff, 0x0f,
   0x7c, 0x00, 0x0c, 0x7c, 0x00, 0x3c, 0x7c, 0x00, 0x3c, 0x7c, 0x00, 0x3c,
   0x7c, 0x00, 0x3c, 0x7c, 0x00, 0x3c, 0x7c, 0x00, 0x3c, 0x7c, 0x00, 0x0c,
   0xfc, 0xff, 0x0f, 0xf8, 0xff, 0x07, 0x00, 0x00, 0x00, 0x00, 0x00, 0x00,
   0x00, 0x00, 0x00, 0x00, 0x00, 0x00, 0x00, 0x00, 0x00, 0x00, 0x00, 0x00 };
