#define battery_70_width 24
#define battery_70_height 24
static unsigned char battery_70_bits[] = {
   0x00, 0x00, 0x00, 0x00, 0x00, 0x00, 0x00, 0x00, 0x00, 0x00, 0x00, 0x00,
   0x00, 0x00, 0x00, 0x00, 0x00, 0x00, 0xfc, 0xff, 0x0f, 0xfc, 0xff, 0x0f,
   0xfc, 0x3f, 0x0c, 0xfc, 0x3f, 0x3c, 0xfc, 0x3f, 0x3c, 0xfc, 0x3f, 0x3c,
   0xfc, 0x3f, 0x3c, 0xfc, 0x3f, 0x3c, 0xfc, 0x3f, 0x3c, 0xfc, 0x3f, 0x0c,
   0xfc, 0xff, 0x0f, 0xfc, 0xff, 0x0f, 0x00, 0x00, 0x00, 0x00, 0x00, 0x00,
   0x00, 0x00, 0x00, 0x00, 0x00, 0x00, 0x00, 0x00, 0x00, 0x00, 0x00, 0x00 };
