#define eye_outline_width 24
#define eye_outline_height 24
static unsigned char eye_outline_bits[] = {
   0x00, 0x00, 0x00, 0x00, 0x00, 0x00, 0x00, 0x00, 0x00, 0x00, 0x00, 0x00,
   0x00, 0x00, 0x00, 0x00, 0xff, 0x00, 0xc0, 0xc5, 0x03, 0x60, 0x00, 0x06,
   0x38, 0x00, 0x0c, 0x08, 0x10, 0x18, 0x0c, 0x3c, 0x30, 0x04, 0x7e, 0x20,
   0x06, 0x7e, 0x60, 0x0c, 0x3c, 0x30, 0x18, 0x08, 0x10, 0x30, 0x00, 0x0c,
   0x60, 0x00, 0x06, 0xc0, 0xc3, 0x03, 0x00, 0xff, 0x00, 0x00, 0x00, 0x00,
   0x00, 0x00, 0x00, 0x00, 0x00, 0x00, 0x00, 0x00, 0x00, 0x00, 0x00, 0x00 };
