#define water_outline_width 24
#define water_outline_height 24
static unsigned char water_outline_bits[] = {
   0x00, 0x00, 0x00, 0x00, 0x00, 0x00, 0x00, 0x00, 0x00, 0x00, 0x00, 0x00,
   0x00, 0x00, 0x00, 0x00, 0x18, 0x00, 0x00, 0x3c, 0x00, 0x00, 0x66, 0x00,
   0x00, 0x62, 0x00, 0x00, 0xc3, 0x00, 0x80, 0x81, 0x01, 0x80, 0x81, 0x01,
   0x80, 0x00, 0x01, 0xc0, 0x00, 0x03, 0xc0, 0x00, 0x03, 0xc0, 0x00, 0x03,
   0x80, 0x00, 0x01, 0x80, 0x81, 0x01, 0x00, 0xef, 0x00, 0x00, 0x3c, 0x00,
   0x00, 0x00, 0x00, 0x00, 0x00, 0x00, 0x00, 0x00, 0x00, 0x00, 0x00, 0x00 };
