#define weather_sunset_up_width 24
#define weather_sunset_up_height 24
static unsigned char weather_sunset_up_bits[] = {
   0x00, 0x00, 0x00, 0x00, 0x00, 0x00, 0x00, 0x00, 0x00, 0x00, 0x18, 0x00,
   0x00, 0x18, 0x00, 0x00, 0x00, 0x00, 0x00, 0x00, 0x00, 0x30, 0x18, 0x0c,
   0x30, 0x7e, 0x0c, 0x00, 0xc3, 0x00, 0x80, 0x81, 0x00, 0x80, 0x81, 0x01,
   0xf8, 0xff, 0x1f, 0xf8, 0xff, 0x1f, 0x00, 0x00, 0x00, 0x00, 0x00, 0x00,
   0x00, 0x10, 0x00, 0x00, 0x3c, 0x00, 0x00, 0x34, 0x00, 0x00, 0x67, 0x00,
   0x00, 0x81, 0x00, 0x00, 0x00, 0x00, 0x00, 0x00, 0x00, 0x00, 0x00, 0x00 };
