#define weather_cloudy_width 24
#define weather_cloudy_height 24
static unsigned char weather_cloudy_bits[] = {
   0x00, 0x00, 0x00, 0x00, 0x00, 0x00, 0x00, 0x00, 0x00, 0x00, 0x00, 0x00,
   0x00, 0x00, 0x00, 0x00, 0x38, 0x00, 0x00, 0xff, 0x00, 0x80, 0x81, 0x01,
   0x80, 0x00, 0x01, 0x60, 0x00, 0x03, 0x78, 0x00, 0x02, 0x0c, 0x00, 0x0e,
   0x06, 0x00, 0x3e, 0x06, 0x00, 0x20, 0x06, 0x00, 0x60, 0x04, 0x00, 0x60,
   0x0c, 0x00, 0x20, 0xf8, 0xff, 0x3f, 0xf0, 0xff, 0x0f, 0x00, 0x00, 0x00,
   0x00, 0x00, 0x00, 0x00, 0x00, 0x00, 0x00, 0x00, 0x00, 0x00, 0x00, 0x00 };
