#define weather_sunny_alert_width 24
#define weather_sunny_alert_height 24
static unsigned char weather_sunny_alert_bits[] = {
   0x00, 0x00, 0x00, 0x00, 0x00, 0x00, 0x00, 0x00, 0x00, 0x00, 0x18, 0x00,
   0x00, 0x18, 0x00, 0x00, 0x00, 0x00, 0x00, 0x00, 0x00, 0x30, 0x18, 0x18,
   0x30, 0x7e, 0x18, 0x00, 0xc3, 0x18, 0x80, 0x81, 0x18, 0x80, 0x81, 0x19,
   0x80, 0x81, 0x19, 0x00, 0x81, 0x00, 0x00, 0xc3, 0x00, 0x30, 0x7e, 0x18,
   0x30, 0x1c, 0x18, 0x00, 0x00, 0x00, 0x00, 0x00, 0x00, 0x00, 0x18, 0x00,
   0x00, 0x18, 0x00, 0x00, 0x00, 0x00, 0x00, 0x00, 0x00, 0x00, 0x00, 0x00 };
