#define battery_50_width 24
#define battery_50_height 24
static unsigned char battery_50_bits[] = {
   0x00, 0x00, 0x00, 0x00, 0x00, 0x00, 0x00, 0x00, 0x00, 0x00, 0x00, 0x00,
   0x00, 0x00, 0x00, 0x00, 0x00, 0x00, 0xfc, 0xff, 0x0f, 0xfc, 0xff, 0x0f,
   0xfc, 0x07, 0x0c, 0xfc, 0x07, 0x3c, 0xfc, 0x07, 0x3c, 0xfc, 0x07, 0x3c,
   0xfc, 0x07, 0x3c, 0xfc, 0x07, 0x3c, 0xfc, 0x07, 0x3c, 0xfc, 0x07, 0x0c,
   0xfc, 0xff, 0x0f, 0xfc, 0xff, 0x0f, 0x00, 0x00, 0x00, 0x00, 0x00, 0x00,
   0x00, 0x00, 0x00, 0x00, 0x00, 0x00, 0x00, 0x00, 0x00, 0x00, 0x00, 0x00 };
