#define battery_charging_width 24
#define battery_charging_height 24
static unsigned char battery_charging_bits[] = {
   0x00, 0x00, 0x00, 0x00, 0x00, 0x00, 0x00, 0x00, 0x00, 0x00, 0x00, 0x00,
   0x00, 0x00, 0x00, 0x00, 0x00, 0x00, 0xf8, 0xff, 0x07, 0xfc, 0xff, 0x0f,
   0xfc, 0xff, 0x0f, 0xfc, 0xf9, 0x3f, 0xfc, 0xe1, 0x3f, 0x0c, 0x80, 0x3f,
   0x3c, 0x00, 0x3e, 0xfc, 0xf0, 0x3f, 0xfc, 0xfb, 0x3f, 0xfc, 0xff, 0x0f,
   0xfc, 0xff, 0x0f, 0xf8, 0xff, 0x07, 0x00, 0x00, 0x00, 0x00, 0x00, 0x00,
   0x00, 0x00, 0x00, 0x00, 0x00, 0x00, 0x00, 0x00, 0x00, 0x00, 0x00, 0x00 };
