#define cursor_pointer_width 24
#define cursor_pointer_height 24
static unsigned char cursor_pointer_bits[] = {
   0x00, 0x00, 0x00, 0x00, 0x00, 0x00, 0x00, 0x00, 0x00, 0x00, 0x0c, 0x00,
   0x00, 0x1e, 0x00, 0x00, 0x1e, 0x00, 0x00, 0x1e, 0x00, 0x00, 0x1e, 0x00,
   0x00, 0x1e, 0x00, 0x00, 0x1e, 0x00, 0x00, 0x1e, 0x00, 0x00, 0xfe, 0x00,
   0x00, 0xfe, 0x03, 0x00, 0xfe, 0x07, 0x10, 0xfe, 0x07, 0xf8, 0xff, 0x07,
   0xf0, 0xff, 0x07, 0xe0, 0xff, 0x07, 0xc0, 0xff, 0x07, 0x80, 0xff, 0x07,
   0x00, 0xff, 0x03, 0x00, 0xfc, 0x03, 0x00, 0x00, 0x00, 0x00, 0x00, 0x00 };
