#define gauge_width 24
#define gauge_height 24
static unsigned char gauge_bits[] = {
   0x00, 0x00, 0x00, 0x00, 0x00, 0x00, 0x00, 0x1c, 0x00, 0x80, 0xff, 0x01,
   0xc0, 0x00, 0x03, 0x60, 0x00, 0x06, 0x30, 0x44, 0x0c, 0x18, 0x60, 0x18,
   0x08, 0x20, 0x10, 0x48, 0x30, 0x12, 0x8c, 0x18, 0x32, 0x0c, 0x38, 0x30,
   0x0c, 0x1c, 0x30, 0x08, 0x18, 0x10, 0x08, 0x00, 0x10, 0x08, 0x00, 0x18,
   0x18, 0x1c, 0x08, 0x30, 0xff, 0x0c, 0xe0, 0xff, 0x07, 0xc0, 0xff, 0x03,
   0x80, 0xff, 0x01, 0x00, 0x38, 0x00, 0x00, 0x00, 0x00, 0x00, 0x00, 0x00 };
