#define thermometer_chevron_up_width 24
#define thermometer_chevron_up_height 24
static unsigned char thermometer_chevron_up_bits[] = {
   0x00, 0x00, 0x00, 0x00, 0x00, 0x00, 0xc0, 0x00, 0x00, 0xe0, 0x01, 0x00,
   0x30, 0x03, 0x00, 0x30, 0x03, 0x00, 0x30, 0x03, 0x00, 0x30, 0x03, 0x00,
   0xf0, 0x03, 0x00, 0xf0, 0x03, 0x00, 0xf0, 0x03, 0x07, 0xf0, 0x03, 0x0f,
   0xf0, 0xc3, 0x08, 0xf0, 0xc3, 0x18, 0xf8, 0x07, 0x00, 0xf8, 0x0f, 0x00,
   0xfc, 0x0f, 0x00, 0xfc, 0x0f, 0x00, 0xf8, 0x07, 0x00, 0xf8, 0x07, 0x00,
   0xf0, 0x03, 0x00, 0xc0, 0x01, 0x00, 0x00, 0x00, 0x00, 0x00, 0x00, 0x00 };
