#define water_remove_outline_customized_width 24
#define water_remove_outline_customized_height 24
static unsigned char water_remove_outline_customized_bits[] = {
   0x00, 0x00, 0x00, 0x00, 0x00, 0x00, 0x00, 0x00, 0x00, 0x00, 0x00, 0x00,
   0x00, 0x18, 0x00, 0x00, 0x18, 0x00, 0x00, 0x2c, 0x00, 0x00, 0x66, 0x00,
   0x00, 0xc3, 0x00, 0x00, 0x83, 0x00, 0x80, 0x81, 0x01, 0x80, 0x00, 0x01,
   0x80, 0x00, 0x00, 0xc0, 0x00, 0x00, 0xc0, 0x00, 0x00, 0x80, 0x80, 0x11,
   0x80, 0x01, 0x19, 0x00, 0x03, 0x06, 0x00, 0x0f, 0x03, 0x00, 0x08, 0x1b,
   0x00, 0x80, 0x10, 0x00, 0x00, 0x00, 0x00, 0x00, 0x00, 0x00, 0x00, 0x00 };
