#define weather_windy_width 24
#define weather_windy_height 24
static unsigned char weather_windy_bits[] = {
   0x00, 0x00, 0x00, 0x00, 0x00, 0x00, 0x00, 0x18, 0x00, 0x00, 0x7e, 0x00,
   0x00, 0x40, 0x00, 0x00, 0xc0, 0x00, 0x00, 0xc0, 0x00, 0x00, 0x40, 0x00,
   0xf0, 0x7f, 0x0c, 0xf0, 0x1f, 0x1e, 0x00, 0x00, 0x30, 0x00, 0x00, 0x30,
   0xe0, 0xff, 0x1f, 0xe0, 0xff, 0x0f, 0x00, 0x00, 0x00, 0x00, 0x00, 0x00,
   0xf0, 0xff, 0x07, 0xf0, 0xff, 0x0f, 0x00, 0x00, 0x18, 0x00, 0x00, 0x18,
   0x00, 0x00, 0x0f, 0x00, 0x00, 0x04, 0x00, 0x00, 0x00, 0x00, 0x00, 0x00 };
